<svg width="26" height="26" viewBox="0 0 26 26" fill="none" xmlns="http://www.w3.org/2000/svg">
<path d="M10.833 12.2373V21.6666C10.833 22.2646 10.833 22.75 11.9163 22.75H14.083C15.1663 22.75 15.1663 22.2646 15.1663 21.6666V14.3411C13.5016 14.2364 11.945 13.4806 10.833 12.2373Z" fill="url(#paint0_linear_117_187)"/>
<path fill-rule="evenodd" clip-rule="evenodd" d="M11.2638 9.96797C11.5446 10.5785 11.952 11.1225 12.4589 11.5637C12.9659 12.0049 13.5608 12.3334 14.2043 12.5273C14.8478 12.7212 15.5251 12.7761 16.1915 12.6884C16.8578 12.6008 17.4979 12.3725 18.0693 12.0187L20.9 14.8495L22.4319 13.3176L19.6011 10.4869C20.0325 9.79024 20.276 8.99366 20.3077 8.17487C20.3393 7.35608 20.1582 6.54307 19.782 5.81516C19.4057 5.08726 18.8472 4.46934 18.1608 4.0217C17.4745 3.57406 16.6839 3.31201 15.866 3.26111C15.0482 3.21021 14.2312 3.3722 13.4946 3.73128C12.7581 4.09035 12.1272 4.63425 11.6636 5.30988C11.2 5.98551 10.9195 6.76979 10.8494 7.58619C10.7793 8.40259 10.9221 9.22321 11.2638 9.96797ZM15.5722 10.5627C15.4184 10.5627 15.2678 10.5497 15.1205 10.5237C14.5745 10.4265 14.0747 10.1551 13.6959 9.75022C13.291 9.31867 13.0472 8.76075 13.0057 8.17047C12.9641 7.58019 13.1273 6.99363 13.4677 6.50962C13.8082 6.0256 14.305 5.67373 14.8746 5.51327C15.4442 5.35282 16.0516 5.3936 16.5947 5.62874C17.1377 5.86388 17.583 6.27901 17.8557 6.80418C18.1284 7.32934 18.2117 7.93245 18.0916 8.51188C17.9716 9.09131 17.6554 9.61165 17.1965 9.98521C16.7376 10.3588 16.1639 10.5627 15.5722 10.5627Z" fill="url(#paint1_linear_117_187)"/>
<path d="M4.33301 4.33333C4.33301 3.73533 4.33301 3.25 5.41634 3.25H7.58301C8.66634 3.25 8.66634 3.73533 8.66634 4.33333V21.6667C8.66634 22.2647 8.66634 22.75 7.58301 22.75H5.41634C4.33301 22.75 4.33301 22.2647 4.33301 21.6667V4.33333ZM18.4163 16.25C17.333 16.25 17.333 16.7353 17.333 17.3333V21.6667C17.333 22.2647 17.333 22.75 18.4163 22.75H20.583C21.181 22.75 21.6663 22.75 21.6663 21.6667V17.3333C21.6663 16.7353 21.6663 16.25 20.583 16.25H18.4163Z" fill="url(#paint2_linear_117_187)"/>
<defs>
<linearGradient id="paint0_linear_117_187" x1="15.1663" y1="22.75" x2="10.1394" y2="22.4071" gradientUnits="userSpaceOnUse">
<stop stop-color="#537D5D"/>
<stop offset="1" stop-color="#73946B"/>
</linearGradient>
<linearGradient id="paint1_linear_117_187" x1="22.4319" y1="14.8495" x2="9.27305" y2="12.6716" gradientUnits="userSpaceOnUse">
<stop stop-color="#537D5D"/>
<stop offset="1" stop-color="#73946B"/>
</linearGradient>
<linearGradient id="paint2_linear_117_187" x1="21.6663" y1="22.75" x2="1.89265" y2="19.8416" gradientUnits="userSpaceOnUse">
<stop stop-color="#537D5D"/>
<stop offset="1" stop-color="#73946B"/>
</linearGradient>
</defs>
</svg>
