<svg width="42" height="42" viewBox="0 0 42 42" fill="none" xmlns="http://www.w3.org/2000/svg">
<circle opacity="0.42" cx="21.0004" cy="20.9999" r="18.7895" fill="#9EBC8A"/>
<circle cx="21" cy="21" r="20.25" stroke="#537D5D" strokeWidth="1.5"/>
<path d="M12.5 23.5V26.5C12.5 27.6046 13.3954 28.5 14.5 28.5H27.5C28.6046 28.5 29.5 27.6046 29.5 26.5V25.5M12.5 20.5V19.272C12.5 18.2934 13.2934 17.5 14.272 17.5V17.5C15.0107 17.5 15.6718 17.0418 15.9312 16.3502L16.5133 14.7978C16.8061 14.0171 17.5523 13.5 18.386 13.5H23.614C24.4477 13.5 25.1939 14.0171 25.4867 14.7978L26.0688 16.3502C26.3282 17.0418 26.9893 17.5 27.728 17.5V17.5C28.7066 17.5 29.5 18.2934 29.5 19.272V22.5" stroke="#537D5D" strokeWidth="1.5" strokeLinecap="round"/>
<circle cx="21" cy="22" r="3.25" stroke="#537D5D" strokeWidth="1.5"/>
</svg>
