<svg width="42" height="42" viewBox="0 0 42 42" fill="none" xmlns="http://www.w3.org/2000/svg">
<circle opacity="0.42" cx="21.0004" cy="20.9999" r="18.7895" fill="#9EBC8A"/>
<circle cx="21" cy="21" r="20.25" stroke="#537D5D" strokeWidth="1.5"/>
<path d="M20.3105 12.4795C20.7508 12.2908 21.2492 12.2908 21.6895 12.4795L27.6035 15.0146C28.3203 15.3219 28.7471 16.066 28.6504 16.8398L28.0381 21.7432C27.8258 23.4415 26.976 24.9961 25.6611 26.0918L22.1201 29.043C21.4712 29.5835 20.5288 29.5835 19.8799 29.043L16.3389 26.0918C15.024 24.9961 14.1742 23.4415 13.9619 21.7432L13.3496 16.8398C13.2529 16.066 13.6797 15.3219 14.3965 15.0146L20.3105 12.4795Z" stroke="#537D5D" strokeWidth="1.5" strokeLinecap="round"/>
<path d="M18 21L20.5687 23.5687C20.7918 23.7918 21.1633 23.7551 21.3383 23.4925L25 18" stroke="#537D5D" strokeWidth="1.5" strokeLinecap="round"/>
</svg>
