<svg width="159" height="66" viewBox="0 0 159 66" fill="none" xmlns="http://www.w3.org/2000/svg">
<mask id="mask0_167_4677" style="mask-type:luminance" maskUnits="userSpaceOnUse" x="0" y="0" width="159" height="66">
<path d="M159 0H0V66H159V0Z" fill="black" fill-opacity="0.6"/>
</mask>
<g mask="url(#mask0_167_4677)">
<mask id="mask1_167_4677" style="mask-type:luminance" maskUnits="userSpaceOnUse" x="25" y="19" width="16" height="29">
<path d="M40.6872 19.3169H25.6973V47.7559H40.6872V19.3169Z" fill="white"/>
</mask>
<g mask="url(#mask1_167_4677)">
<mask id="mask2_167_4677" style="mask-type:luminance" maskUnits="userSpaceOnUse" x="26" y="19" width="15" height="29">
<path d="M26.0049 19.8535H40.6602V47.2194H26.0049V19.8535Z" fill="white"/>
</mask>
<g mask="url(#mask2_167_4677)">
<mask id="mask3_167_4677" style="mask-type:luminance" maskUnits="userSpaceOnUse" x="25" y="19" width="16" height="29">
<path d="M39.5914 19.625L40.6182 46.7792L26.8266 47.3032L25.7998 20.149L39.5914 19.625Z" fill="white"/>
</mask>
<g mask="url(#mask3_167_4677)">
<mask id="mask4_167_4677" style="mask-type:luminance" maskUnits="userSpaceOnUse" x="25" y="19" width="16" height="29">
<path d="M39.5914 19.625L40.6182 46.7792L26.8266 47.3032L25.7998 20.149L39.5914 19.625Z" fill="white"/>
</mask>
<g mask="url(#mask4_167_4677)">
<path d="M40.6185 46.7794C33.1382 47.0623 26.8415 41.2144 26.5592 33.7169L26.0469 20.1388C33.5272 19.8558 39.8218 25.7058 40.1041 33.2033L40.6185 46.7794Z" fill="#1F4E47"/>
</g>
</g>
</g>
</g>
</g>
<mask id="mask5_167_4677" style="mask-type:luminance" maskUnits="userSpaceOnUse" x="0" y="1" width="41" height="54">
<path d="M0.641602 1.07324H40.1511V54.1952H0.641602V1.07324Z" fill="white"/>
</mask>
<g mask="url(#mask5_167_4677)">
<mask id="mask6_167_4677" style="mask-type:luminance" maskUnits="userSpaceOnUse" x="0" y="0" width="159" height="66">
<path d="M159 0H0V66H159V0Z" fill="black" fill-opacity="0.4"/>
</mask>
<g mask="url(#mask6_167_4677)">
<mask id="mask7_167_4677" style="mask-type:luminance" maskUnits="userSpaceOnUse" x="0" y="1" width="41" height="54">
<path d="M40.1513 1.07324H0.535156V54.1952H40.1513V1.07324Z" fill="white"/>
</mask>
<g mask="url(#mask7_167_4677)">
<mask id="mask8_167_4677" style="mask-type:luminance" maskUnits="userSpaceOnUse" x="0" y="8" width="40" height="40">
<path d="M0.641602 8.04883H39.6158V47.2196H0.641602V8.04883Z" fill="white"/>
</mask>
<g mask="url(#mask8_167_4677)">
<mask id="mask9_167_4677" style="mask-type:luminance" maskUnits="userSpaceOnUse" x="0" y="1" width="40" height="53">
<path d="M17.7957 53.862L0.71875 10.1596L22.7477 1.50928L39.8267 45.2116L17.7957 53.862Z" fill="white"/>
</mask>
<g mask="url(#mask9_167_4677)">
<mask id="mask10_167_4677" style="mask-type:luminance" maskUnits="userSpaceOnUse" x="0" y="1" width="40" height="53">
<path d="M17.7957 53.862L0.71875 10.1596L22.7477 1.50928L39.8267 45.2116L17.7957 53.862Z" fill="white"/>
</mask>
<g mask="url(#mask10_167_4677)">
<path d="M0.71875 10.1615C12.7558 5.43704 26.3404 11.3877 31.0541 23.4525L39.5925 45.2995C27.5554 50.026 13.9708 44.0733 9.25722 32.0106L0.71875 10.1615Z" fill="#3D7D6B"/>
</g>
</g>
</g>
</g>
</g>
</g>
<mask id="mask11_167_4677" style="mask-type:luminance" maskUnits="userSpaceOnUse" x="2" y="9" width="39" height="39">
<path d="M2.1416 9.12207H40.6871V47.7562H2.1416V9.12207Z" fill="white"/>
</mask>
<g mask="url(#mask11_167_4677)">
<mask id="mask12_167_4677" style="mask-type:luminance" maskUnits="userSpaceOnUse" x="2" y="2" width="39" height="53">
<path d="M18.6286 54.3505L2.30664 10.3589L24.0219 2.26611L40.3439 46.2577L18.6286 54.3505Z" fill="white"/>
</mask>
<g mask="url(#mask12_167_4677)">
<mask id="mask13_167_4677" style="mask-type:luminance" maskUnits="userSpaceOnUse" x="2" y="2" width="39" height="53">
<path d="M18.6286 54.3505L2.30664 10.3589L24.0219 2.26611L40.3439 46.2577L18.6286 54.3505Z" fill="white"/>
</mask>
<g mask="url(#mask13_167_4677)">
<path d="M2.47852 10.8222C14.4696 6.35348 27.8095 12.4739 32.268 24.4926L40.3443 46.2578C28.3532 50.7266 15.0133 44.6061 10.5548 32.5875L2.47852 10.8222Z" fill="#56AB91"/>
</g>
</g>
</g>
<mask id="mask14_167_4677" style="mask-type:luminance" maskUnits="userSpaceOnUse" x="0" y="0" width="159" height="66">
<path d="M159 0H0V66H159V0Z" fill="black" fill-opacity="0.5"/>
</mask>
<g mask="url(#mask14_167_4677)">
<mask id="mask15_167_4677" style="mask-type:luminance" maskUnits="userSpaceOnUse" x="6" y="0" width="33" height="50">
<path d="M38.5458 0H6.95996V49.9024H38.5458V0Z" fill="white"/>
</mask>
<g mask="url(#mask15_167_4677)">
<mask id="mask16_167_4677" style="mask-type:luminance" maskUnits="userSpaceOnUse" x="7" y="3" width="32" height="43">
<path d="M7.39746 3.75586H38.3664V45.6095H7.39746V3.75586Z" fill="white"/>
</mask>
<g mask="url(#mask16_167_4677)">
<mask id="mask17_167_4677" style="mask-type:luminance" maskUnits="userSpaceOnUse" x="7" y="-1" width="32" height="51">
<path d="M15.7168 49.3487L7.43555 4.15818L30.2215 -0.0380859L38.5028 45.1525L15.7168 49.3487Z" fill="white"/>
</mask>
<g mask="url(#mask17_167_4677)">
<mask id="mask18_167_4677" style="mask-type:luminance" maskUnits="userSpaceOnUse" x="7" y="-1" width="32" height="51">
<path d="M29.9764 -0.000488281L38.2577 45.1901L15.4717 49.3842L7.19043 4.19368L29.9764 -0.000488281Z" fill="white"/>
</mask>
<g mask="url(#mask18_167_4677)">
<path d="M38.258 45.1858C25.811 47.4789 13.8638 39.2205 11.5781 26.7449L7.4375 4.15169C19.8845 1.86072 31.8316 10.1191 34.1173 22.5947L38.258 45.1858Z" fill="#2D7464"/>
</g>
</g>
</g>
</g>
</g>
<mask id="mask19_167_4677" style="mask-type:luminance" maskUnits="userSpaceOnUse" x="9" y="4" width="32" height="44">
<path d="M9.10059 4.8291H40.6864V47.2193H9.10059V4.8291Z" fill="white"/>
</mask>
<g mask="url(#mask19_167_4677)">
<mask id="mask20_167_4677" style="mask-type:luminance" maskUnits="userSpaceOnUse" x="8" y="0" width="33" height="52">
<path d="M17.3965 51.1786L8.9375 5.01546L31.7235 0.821289L40.1825 46.9844L17.3965 51.1786Z" fill="white"/>
</mask>
<g mask="url(#mask20_167_4677)">
<mask id="mask21_167_4677" style="mask-type:luminance" maskUnits="userSpaceOnUse" x="9" y="1" width="32" height="51">
<path d="M31.8885 1.0415L40.3475 47.2046L17.5615 51.4009L9.10254 5.23777L31.8885 1.0415Z" fill="white"/>
</mask>
<g mask="url(#mask21_167_4677)">
<path d="M40.2597 46.7185C27.6768 49.0367 15.5979 40.6882 13.2871 28.0764L9.10254 5.23794C21.6854 2.92182 33.7623 11.2703 36.0731 23.8801L40.2597 46.7185Z" fill="#379683"/>
</g>
</g>
</g>
<mask id="mask22_167_4677" style="mask-type:luminance" maskUnits="userSpaceOnUse" x="0" y="0" width="159" height="66">
<path d="M159 0H0V66H159V0Z" fill="black" fill-opacity="0.6"/>
</mask>
<g mask="url(#mask22_167_4677)">
<mask id="mask23_167_4677" style="mask-type:luminance" maskUnits="userSpaceOnUse" x="17" y="3" width="24" height="44">
<path d="M40.1518 3.21973H17.667V46.6831H40.1518V3.21973Z" fill="white"/>
</mask>
<g mask="url(#mask23_167_4677)">
<mask id="mask24_167_4677" style="mask-type:luminance" maskUnits="userSpaceOnUse" x="18" y="3" width="23" height="44">
<path d="M18.1016 3.32227H40.1493V46.1464H18.1016V3.32227Z" fill="white"/>
</mask>
<g mask="url(#mask24_167_4677)">
<mask id="mask25_167_4677" style="mask-type:luminance" maskUnits="userSpaceOnUse" x="18" y="3" width="23" height="44">
<path d="M18.8714 46.3351L18.127 3.85259L39.3194 3.47949L40.0639 45.962L18.8714 46.3351Z" fill="white"/>
</mask>
<g mask="url(#mask25_167_4677)">
<mask id="mask26_167_4677" style="mask-type:luminance" maskUnits="userSpaceOnUse" x="18" y="3" width="23" height="44">
<path d="M39.3691 3.3623L40.1157 45.8448L18.9232 46.2179L18.1787 3.7354L39.3691 3.3623Z" fill="white"/>
</mask>
<g mask="url(#mask26_167_4677)">
<path d="M40.1155 45.8406C28.4151 46.0461 18.7599 36.704 18.555 24.9767L18.1807 3.73965C29.8811 3.53424 39.5362 12.8763 39.7433 24.6036L40.1155 45.8406Z" fill="#2D7464"/>
</g>
</g>
</g>
</g>
</g>
<mask id="mask27_167_4677" style="mask-type:luminance" maskUnits="userSpaceOnUse" x="19" y="5" width="22" height="43">
<path d="M19.8076 5.36572H40.6864V47.2194H19.8076V5.36572Z" fill="white"/>
</mask>
<g mask="url(#mask27_167_4677)">
<mask id="mask28_167_4677" style="mask-type:luminance" maskUnits="userSpaceOnUse" x="19" y="5" width="22" height="42">
<path d="M40.3809 5.69043L40.521 46.6952L19.8178 46.7665L19.6777 5.7596L40.3809 5.69043Z" fill="white"/>
</mask>
<g mask="url(#mask28_167_4677)">
<mask id="mask29_167_4677" style="mask-type:luminance" maskUnits="userSpaceOnUse" x="19" y="5" width="22" height="42">
<path d="M40.3809 5.69043L40.521 46.6952L19.8178 46.7665L19.6777 5.7596L40.3809 5.69043Z" fill="white"/>
</mask>
<g mask="url(#mask29_167_4677)">
<path d="M40.521 46.691C29.2263 46.7308 20.0375 37.5816 19.9977 26.263L19.9287 5.7638C31.2213 5.72398 40.4123 14.8732 40.4499 26.1918L40.521 46.691Z" fill="#27665C"/>
</g>
</g>
</g>
<path d="M42.3594 20.98H48.3654C50.2726 20.98 51.6904 21.4893 52.6231 22.5059C53.56 23.5183 54.0284 25.0044 54.0284 26.9663V39.2071C54.0284 41.169 53.56 42.6593 52.6231 43.6759C51.6904 44.6883 50.2726 45.1934 48.3654 45.1934H42.3594V20.98ZM46.157 24.4342V41.7307H48.2985C48.8945 41.7307 49.365 41.561 49.7121 41.2193C50.0572 40.8735 50.2307 40.2614 50.2307 39.3832V26.7902C50.2307 25.9141 50.0572 25.302 49.7121 24.9541C49.365 24.6082 48.8945 24.4342 48.2985 24.4342H46.157Z" fill="#2A2A2A"/>
<path d="M68.7264 45.1934H64.8953L64.2428 40.8001H59.5836L58.9227 45.1934H55.4346L59.2992 20.98H64.8618L68.7264 45.1934ZM60.0604 37.5135H63.7242L61.8923 25.2643L60.0604 37.5135Z" fill="#2A2A2A"/>
<path d="M74.1053 20.98V39.6599C74.1053 40.5381 74.283 41.1501 74.6406 41.496C74.9961 41.8376 75.4729 42.0074 76.071 42.0074C76.6733 42.0074 77.1522 41.8376 77.5098 41.496C77.8653 41.1501 78.0451 40.5381 78.0451 39.6599V20.98H81.6337V39.4167C81.6337 41.3786 81.1527 42.8857 80.1949 43.9358C79.2413 44.9817 77.8318 45.5036 75.9707 45.5036C74.1074 45.5036 72.6958 44.9817 71.738 43.9358C70.7844 42.8857 70.3076 41.3786 70.3076 39.4167V20.98H74.1053Z" fill="#2A2A2A"/>
<path d="M87.5965 27.6538V45.1934H84.1836V20.98H88.9432L92.8496 35.4762V20.98H96.229V45.1934H92.331L87.5965 27.6538Z" fill="#2A2A2A"/>
<path d="M102.75 31.1835H107.961V34.6461H102.75V41.7307H109.308V45.1934H98.9521V20.98H109.308V24.4342H102.75V31.1835Z" fill="#2A2A2A"/>
<path d="M111.166 26.79C111.166 24.8281 111.63 23.3253 112.563 22.2793C113.493 21.2292 114.892 20.7031 116.762 20.7031C118.623 20.7031 120.02 21.2292 120.953 22.2793C121.883 23.3253 122.35 24.8281 122.35 26.79V27.553H118.761V26.5469C118.761 25.6707 118.594 25.0524 118.259 24.694C117.925 24.3377 117.458 24.1574 116.862 24.1574C116.264 24.1574 115.8 24.3377 115.465 24.694C115.131 25.0524 114.963 25.6707 114.963 26.5469C114.963 27.3811 115.148 28.1147 115.516 28.7519C115.884 29.3849 116.344 29.9823 116.896 30.5461C117.448 31.112 118.038 31.6759 118.669 32.2397C119.305 32.8056 119.899 33.4219 120.451 34.0926C121.003 34.7591 121.463 35.5179 121.831 36.3731C122.199 37.2283 122.383 38.2323 122.383 39.383C122.383 41.3449 121.906 42.8519 120.953 43.9021C119.999 44.948 118.59 45.4699 116.728 45.4699C114.859 45.4699 113.449 44.948 112.496 43.9021C111.542 42.8519 111.065 41.3449 111.065 39.383V37.8906H114.654V39.6261C114.654 40.5044 114.832 41.1164 115.189 41.4623C115.545 41.8039 116.022 41.9737 116.62 41.9737C117.216 41.9737 117.693 41.8039 118.05 41.4623C118.406 41.1164 118.585 40.5044 118.585 39.6261C118.585 38.794 118.401 38.0625 118.033 37.4295C117.665 36.7923 117.205 36.1928 116.653 35.6269C116.101 35.0631 115.507 34.4992 114.871 33.9333C114.24 33.3695 113.65 32.7553 113.098 32.0888C112.546 31.4181 112.086 30.6551 111.718 29.7999C111.35 28.9447 111.166 27.9428 111.166 26.79Z" fill="#2A2A2A"/>
<path d="M124.558 20.98H128.355V45.1934H124.558V20.98Z" fill="#2A2A2A"/>
<path d="M143.402 45.1934H139.571L138.919 40.8001H134.259L133.599 45.1934H130.11L133.975 20.98H139.538L143.402 45.1934ZM134.736 37.5135H138.4L136.568 25.2643L134.736 37.5135Z" fill="#2A2A2A"/>
</svg>
